#!OML:ASF I:\Actors\actors\Patient Classification 1\Patient 1\Session 1\Subject1.ASF
:FULLY-SPECIFIED
:DEGREES
507
root 0.0518018 17.5546 8.32697 6.82628 21.9625 -8.36011
lowerback -1.51098 0.585893 8.0513
upperback -10.0975 1.36212 1.79268
thorax -9.81115 0.120401 -2.66826
lowerneck -9.00916 -6.32128 -5.66031
upperneck 26.9865 -9.51211 6.17306
head 10.714 -4.21777 2.02677
rclavicle -6.98231e-015 9.19379e-015
rhumerus -17.0695 26.5962 -98.913
rradius 133.51
rwrist 5.30513
rhand 26.6614 -34.1092
rfingers 7.12502
rthumb 50.6819 -54.9664
lclavicle -6.98231e-015 9.19379e-015
lhumerus -25.1268 -29.0671 106.434
lradius 127.023
lwrist 9.95564
lhand -2.75567 -18.228
lfingers 7.12502
lthumb 22.9484 10.4262
rfemur -0.095326 19.8291 27.428
rtibia 3.00798
rfoot -25.1187 -40.0518
rtoes 24.5641
lfemur -6.04844 -42.5333 -4.52222
ltibia -3.56174
lfoot -2.44422 35.5321
ltoes -17.1872
508
root 0.0589159 17.5587 8.32177 7.02613 21.1493 -8.19446
lowerback -1.54576 0.488365 7.80021
upperback -10.2983 1.24246 1.95225
thorax -10.0343 0.0794357 -2.34848
lowerneck -7.98565 -6.30351 -6.10461
upperneck 26.7729 -9.46159 6.27018
head 10.4592 -4.25992 2.17414
rclavicle -1.69588e-014 1.16413e-014
rhumerus -17.5241 26.905 -99.0988
rradius 133.445
rwrist 5.23827
rhand 27.0873 -34.05
rfingers 7.12502
rthumb 51.0703 -54.6921
lclavicle -1.69588e-014 1.16413e-014
lhumerus -25.89 -28.5899 106.894
lradius 127.296
lwrist 9.97573
lhand -2.98927 -18.3659
lfingers 7.12502
lthumb 22.7243 10.3159
rfemur -0.635238 19.3795 26.9208
rtibia 3.44339
rfoot -24.0589 -38.963
rtoes 23.6587
lfemur -5.62151 -43.5326 -4.94746
ltibia -3.63226
lfoot -3.04462 37.622
ltoes -15.9633
509
root 0.0673418 17.5651 8.31453 7.25289 20.0002 -7.97907
lowerback -1.45695 0.38211 7.56886
upperback -10.2099 1.09909 2.11774
thorax -10.0007 0.0379713 -2.03455
lowerneck -8.25688 -6.3637 -6.58463
upperneck 26.8406 -9.49142 6.373
head 10.572 -4.3067 2.27717
rclavicle -3.22652e-014 3.92103e-014
rhumerus -17.132 27.2706 -98.8678
rradius 133.27
rwrist 4.83463
rhand 27.4081 -34.1846
rfingers 7.12502
rthumb 51.3623 -54.6615
lclavicle -3.22652e-014 3.92103e-014
lhumerus -25.8417 -28.2801 107.007
lradius 127.4
lwrist 9.81983
lhand -3.43337 -18.5592
lfingers 7.12502
lthumb 22.298 10.1743
rfemur -1.32097 18.8762 26.2879
rtibia 4.06019
rfoot -23.0805 -37.4642
rtoes 22.758
lfemur -4.9701 -44.937 -5.56831
ltibia -3.72979
lfoot -4.04604 40.3691
ltoes -14.3245
510
root 0.0752445 17.5703 8.30458 7.50948 18.5497 -7.76957
lowerback -1.34635 0.337132 7.3115
upperback -10.1374 1.02952 2.16808
thorax -9.9875 0.0269298 -1.83463
lowerneck -8.27742 -6.61843 -6.91591
upperneck 26.6926 -9.8623 6.59788
head 10.5825 -4.49236 2.36138
rclavicle -7.58488e-014 1.39646e-014
rhumerus -16.7864 27.3693 -98.7026
rradius 133.109
rwrist 4.65211
rhand 27.4496 -34.3679
rfingers 7.12502
rthumb 51.4001 -54.8232
lclavicle -7.58488e-014 1.39646e-014
lhumerus -25.8661 -28.1919 107.164
lradius 127.467
lwrist 9.6616
lhand -3.5253 -18.8986
lfingers 7.12502
lthumb 22.2097 9.84545
rfemur -2.1804 18.2972 25.6062
rtibia 4.85182
rfoot -21.9993 -35.7166
rtoes 21.4218
lfemur -4.25206 -46.1136 -6.239
ltibia -3.81106
lfoot -5.31236 43.0163
ltoes -12.4186
511
root 0.0832899 17.5749 8.29331 7.78923 16.8193 -7.57149
lowerback -1.19208 0.295041 7.02623
upperback -10.1242 0.962423 2.13316
thorax -10.0659 0.0105959 -1.70997
lowerneck -8.14889 -7.03355 -7.3118
upperneck 26.6333 -10.481 6.85728
head 10.6268 -4.798 2.43999
rclavicle -1.63066e-014 -1.37161e-014
rhumerus -16.8542 26.9939 -98.8519
rradius 133.142
rwrist 4.68371
rhand 27.4772 -34.4295
rfingers 7.12502
rthumb 51.4252 -54.8704
lclavicle -1.63066e-014 -1.37161e-014
lhumerus -26.0951 -28.2808 107.396
lradius 127.591
lwrist 9.64702
lhand -3.45561 -18.8213
lfingers 7.12502
lthumb 22.2766 9.9147
rfemur -3.11322 17.8877 24.9403
rtibia 5.66968
rfoot -20.7377 -34.0148
rtoes 19.4728
lfemur -3.50796 -46.8878 -6.95278
ltibia -3.84547
lfoot -6.97802 45.3794
ltoes -9.63156
512
root 0.0714207 17.5908 8.30538 7.66072 14.8382 -7.41259
lowerback -0.824086 0.147535 6.32277
upperback -10.0086 0.746486 2.14795
thorax -10.1621 -0.0395851 -1.29077
lowerneck -7.43076 -7.67493 -7.43524
upperneck 25.9113 -11.3952 6.86969
head 10.3084 -5.27014 2.36673
rclavicle -6.8239e-015 -1.75738e-014
rhumerus -17.4319 26.2321 -99.4016
rradius 133.344
rwrist 4.78754
rhand 27.4736 -33.9075
rfingers 7.12502
rthumb 51.4219 -54.3503
lclavicle -6.8239e-015 -1.75738e-014
lhumerus -26.5531 -28.6035 107.73
lradius 127.715
lwrist 9.8452
lhand -3.88361 -18.4274
lfingers 7.12502
lthumb 21.8657 10.3571
rfemur -3.2339 18.4559 24.7331
rtibia 6.12839
rfoot -19.8636 -32.9831
rtoes 17.7583
lfemur -1.7351 -47.4021 -8.23194
ltibia -4.12909
lfoot -9.13704 47.5508
ltoes -6.23247
513
root 0.0765478 17.5983 8.30126 7.73824 12.4648 -7.28964
lowerback -0.518163 -0.0506507 5.88281
upperback -9.91589 0.466697 2.1729
thorax -10.2525 -0.143597 -0.998274
lowerneck -6.54008 -8.28659 -6.35362
upperneck 24.9104 -12.1953 5.93035
head 9.70376 -5.6917 1.80616
rclavicle 1.02157e-014 2.7892e-014
rhumerus -17.6996 25.8587 -99.7112
rradius 133.487
rwrist 4.87561
rhand 27.4212 -33.5237
rfingers 7.12502
rthumb 51.3742 -53.9939
lclavicle 1.02157e-014 2.7892e-014
lhumerus -26.875 -28.8225 107.974
lradius 127.802
lwrist 10.1081
lhand -4.51491 -18.4918
lfingers 7.12502
lthumb 21.2594 10.3623
rfemur -3.86932 18.5758 24.2706
rtibia 6.75246
rfoot -18.5787 -31.2823
rtoes 14.9956
lfemur -0.450239 -47.4036 -9.31955
ltibia -4.14385
lfoot -11.8105 49.457
ltoes -2.49888
514
root 0.0919511 17.6005 8.29378 7.9832 9.66151 -7.03031
lowerback -0.40589 -0.34567 5.34122
upperback -9.79185 0.034509 2.25416
thorax -10.1938 -0.307579 -0.575564
lowerneck -6.59371 -8.70955 -7.78697
upperneck 25.2547 -12.8791 6.86964
head 10.0629 -6.04563 2.26116
rclavicle 5.00223e-015 2.75814e-014
rhumerus -16.813 26.7468 -98.9214
rradius 133.315
rwrist 4.68411
rhand 27.0585 -34.0726
rfingers 7.12502
rthumb 51.044 -54.7294
lclavicle 5.00223e-015 2.75814e-014
lhumerus -26.8922 -28.6847 108.02
lradius 127.846
lwrist 10.3207
lhand -4.63056 -18.5137
lfingers 7.12502
lthumb 21.1483 10.3529
rfemur -4.76021 18.5968 23.4928
rtibia 7.3802
rfoot -17.1525 -29.1379
rtoes 11.9625
lfemur 0.782837 -47.3462 -10.6487
ltibia -4.11016
lfoot -14.957 51.5358
ltoes 1.46978
515
root 0.107403 17.603 8.28792 8.26206 6.53898 -6.83797
lowerback -0.272679 -0.806413 4.69826
upperback -9.68881 -0.61011 2.5327
thorax -10.1682 -0.558601 0.134511
lowerneck -6.55851 -9.05429 -8.71725
upperneck 25.4515 -13.3343 7.05489
head 10.255 -6.33278 2.40824
rclavicle -2.06425e-014 1.58531e-014
rhumerus -16.4119 27.5359 -98.4533
rradius 133.297
rwrist 4.40007
rhand 27.2478 -34.5272
rfingers 7.12502
rthumb 51.2165 -55.087
lclavicle -2.06425e-014 1.58531e-014
lhumerus -26.6853 -28.0932 108.013
lradius 127.737
lwrist 10.2672
lhand -4.53525 -18.132
lfingers 7.12502
lthumb 21.2399 10.7243
rfemur -5.7171 18.9559 22.7776
rtibia 7.94844
rfoot -15.8153 -26.9487
rtoes 9.07146
lfemur 2.06276 -47.1659 -11.9626
ltibia -4.14926
lfoot -18.5835 53.5833
ltoes 5.64069
